<?xml version="1.0" standalone="no"?>
<!DOCTYPE svg PUBLIC "-//W3C//DTD SVG 20010904//EN"
 "http://www.w3.org/TR/2001/REC-SVG-20010904/DTD/svg10.dtd">
<svg version="1.0" xmlns="http://www.w3.org/2000/svg"
 width="700.000000pt" height="700.000000pt" viewBox="0 0 700.000000 700.000000"
 preserveAspectRatio="xMidYMid meet">
<metadata>
Created by potrace 1.14, written by Peter Selinger 2001-2017
</metadata>
<g transform="translate(0.000000,700.000000) scale(0.100000,-0.100000)"
fill="#000000" stroke="none">
<path d="M4527 6697 c-16 -45 -34 -98 -42 -117 -7 -19 -17 -44 -20 -55 -4 -11
-22 -60 -40 -110 -51 -141 -144 -400 -183 -510 -19 -55 -39 -105 -43 -111 -7
-8 -362 -11 -1298 -12 -877 0 -1306 -3 -1342 -11 -30 -6 -66 -13 -81 -15 -16
-3 -56 -15 -90 -27 -326 -114 -561 -376 -644 -719 -17 -70 -18 -159 -19 -1479
-1 -1118 1 -1421 11 -1486 49 -304 241 -569 516 -713 87 -46 211 -88 290 -98
29 -4 60 -8 68 -10 8 -1 119 -3 245 -4 127 -1 226 -3 220 -5 -5 -2 -31 -6 -57
-10 l-48 -6 0 -490 0 -489 108 0 c240 1 438 38 650 122 309 123 584 348 768
628 69 106 70 108 106 182 l33 68 1321 0 1321 0 -2 1853 c-1 1018 -5 1866 -9
1882 -23 104 -31 134 -57 202 -87 224 -257 411 -475 521 -62 31 -157 66 -210
77 -57 12 -79 16 -103 20 -13 2 -25 6 -27 7 -2 2 15 51 37 108 22 58 48 128
58 155 10 28 65 174 121 325 136 363 150 402 150 406 0 2 -271 4 -602 4 l-603
0 -28 -83z m923 -138 c0 -9 -252 -694 -270 -734 -5 -11 -66 -173 -135 -360
-315 -847 -447 -1201 -455 -1220 -5 -11 -41 -108 -81 -215 -39 -107 -75 -204
-80 -215 -5 -11 -22 -58 -39 -105 -17 -47 -34 -94 -39 -105 -5 -11 -17 -42
-26 -70 -10 -27 -23 -63 -30 -80 -7 -16 -78 -205 -158 -420 -421 -1133 -425
-1144 -442 -1182 -8 -17 -15 -34 -15 -38 0 -3 -12 -32 -26 -63 -14 -31 -33
-73 -41 -92 -37 -82 -145 -300 -179 -360 -45 -79 -175 -277 -201 -305 -10 -11
-34 -40 -54 -65 -194 -240 -479 -411 -772 -464 -66 -12 -167 -27 -197 -28 -27
-2 -28 9 -27 288 l2 287 70 18 c235 61 437 203 570 401 78 115 150 300 175
449 20 116 16 288 -8 399 -17 77 -110 343 -152 435 -5 11 -82 207 -170 435
-89 228 -187 483 -220 565 -32 83 -107 274 -165 425 -59 151 -126 325 -150
385 -117 299 -155 397 -155 401 0 2 152 4 339 4 l339 0 42 -132 c23 -73 79
-250 125 -393 46 -143 152 -474 235 -735 83 -261 155 -486 160 -500 4 -14 34
-105 65 -203 32 -98 59 -176 61 -174 4 4 290 791 309 852 7 22 24 69 38 105
14 36 50 135 80 220 31 85 86 238 122 340 36 102 69 192 72 200 3 8 7 20 8 25
2 6 19 53 38 105 20 52 88 241 152 420 64 179 125 348 135 375 25 65 184 506
220 610 16 44 49 136 74 205 24 69 56 157 69 195 14 39 30 82 36 96 l10 27
370 0 c218 0 371 -4 371 -9z"/>
</g>
</svg>
